<mxfile host="app.diagrams.net" agent="Mozilla/5.0 (X11; Ubuntu; Linux x86_64; rv:139.0) Gecko/20100101 Firefox/139.0" version="27.1.1">
  <diagram name="Page-1" id="M-Ojg86SOPLshwDXzzaj">
    <mxGraphModel dx="983" dy="504" grid="1" gridSize="10" guides="1" tooltips="1" connect="1" arrows="1" fold="1" page="1" pageScale="1" pageWidth="850" pageHeight="1100" math="0" shadow="0">
      <root>
        <mxCell id="0" />
        <mxCell id="1" parent="0" />
        <mxCell id="gw5JC3p7zC4v-04eLlQQ-36" style="rounded=0;orthogonalLoop=1;jettySize=auto;html=1;exitX=1;exitY=0.5;exitDx=0;exitDy=0;entryX=0;entryY=0.5;entryDx=0;entryDy=0;endArrow=none;startFill=0;" edge="1" parent="1" source="gw5JC3p7zC4v-04eLlQQ-1" target="gw5JC3p7zC4v-04eLlQQ-34">
          <mxGeometry relative="1" as="geometry" />
        </mxCell>
        <mxCell id="gw5JC3p7zC4v-04eLlQQ-37" value="1" style="edgeLabel;html=1;align=center;verticalAlign=middle;resizable=0;points=[];" vertex="1" connectable="0" parent="gw5JC3p7zC4v-04eLlQQ-36">
          <mxGeometry x="0.0206" y="1" relative="1" as="geometry">
            <mxPoint x="78" y="1" as="offset" />
          </mxGeometry>
        </mxCell>
        <mxCell id="gw5JC3p7zC4v-04eLlQQ-1" value="Transfer" style="rounded=0;whiteSpace=wrap;html=1;" vertex="1" parent="1">
          <mxGeometry x="240" y="120" width="120" height="40" as="geometry" />
        </mxCell>
        <mxCell id="gw5JC3p7zC4v-04eLlQQ-20" style="rounded=0;orthogonalLoop=1;jettySize=auto;html=1;exitX=0.5;exitY=1;exitDx=0;exitDy=0;entryX=0.5;entryY=0;entryDx=0;entryDy=0;endArrow=none;startFill=0;" edge="1" parent="1" source="gw5JC3p7zC4v-04eLlQQ-2" target="gw5JC3p7zC4v-04eLlQQ-1">
          <mxGeometry relative="1" as="geometry" />
        </mxCell>
        <mxCell id="gw5JC3p7zC4v-04eLlQQ-2" value="value" style="ellipse;whiteSpace=wrap;html=1;" vertex="1" parent="1">
          <mxGeometry x="70" y="40" width="100" height="40" as="geometry" />
        </mxCell>
        <mxCell id="gw5JC3p7zC4v-04eLlQQ-18" style="rounded=0;orthogonalLoop=1;jettySize=auto;html=1;exitX=0.5;exitY=1;exitDx=0;exitDy=0;entryX=0.5;entryY=0;entryDx=0;entryDy=0;endArrow=none;startFill=0;" edge="1" parent="1" source="gw5JC3p7zC4v-04eLlQQ-9" target="gw5JC3p7zC4v-04eLlQQ-1">
          <mxGeometry relative="1" as="geometry" />
        </mxCell>
        <mxCell id="gw5JC3p7zC4v-04eLlQQ-9" value="hoursWorked" style="ellipse;whiteSpace=wrap;html=1;" vertex="1" parent="1">
          <mxGeometry x="310" y="40" width="100" height="40" as="geometry" />
        </mxCell>
        <mxCell id="gw5JC3p7zC4v-04eLlQQ-17" style="rounded=0;orthogonalLoop=1;jettySize=auto;html=1;exitX=0.5;exitY=1;exitDx=0;exitDy=0;entryX=0.5;entryY=0;entryDx=0;entryDy=0;endArrow=none;startFill=0;" edge="1" parent="1" source="gw5JC3p7zC4v-04eLlQQ-10" target="gw5JC3p7zC4v-04eLlQQ-1">
          <mxGeometry relative="1" as="geometry" />
        </mxCell>
        <mxCell id="gw5JC3p7zC4v-04eLlQQ-10" value="valueDate" style="ellipse;whiteSpace=wrap;html=1;" vertex="1" parent="1">
          <mxGeometry x="430" y="40" width="100" height="40" as="geometry" />
        </mxCell>
        <mxCell id="gw5JC3p7zC4v-04eLlQQ-22" style="rounded=0;orthogonalLoop=1;jettySize=auto;html=1;exitX=0.5;exitY=0;exitDx=0;exitDy=0;entryX=0.5;entryY=1;entryDx=0;entryDy=0;endArrow=none;startFill=0;" edge="1" parent="1" source="gw5JC3p7zC4v-04eLlQQ-11" target="gw5JC3p7zC4v-04eLlQQ-1">
          <mxGeometry relative="1" as="geometry" />
        </mxCell>
        <mxCell id="gw5JC3p7zC4v-04eLlQQ-11" value="created" style="ellipse;whiteSpace=wrap;html=1;" vertex="1" parent="1">
          <mxGeometry x="190" y="200" width="100" height="40" as="geometry" />
        </mxCell>
        <mxCell id="gw5JC3p7zC4v-04eLlQQ-23" style="rounded=0;orthogonalLoop=1;jettySize=auto;html=1;exitX=0.5;exitY=0;exitDx=0;exitDy=0;endArrow=none;startFill=0;" edge="1" parent="1" source="gw5JC3p7zC4v-04eLlQQ-12">
          <mxGeometry relative="1" as="geometry">
            <mxPoint x="300" y="160" as="targetPoint" />
          </mxGeometry>
        </mxCell>
        <mxCell id="gw5JC3p7zC4v-04eLlQQ-12" value="isSalary" style="ellipse;whiteSpace=wrap;html=1;" vertex="1" parent="1">
          <mxGeometry x="310" y="200" width="100" height="40" as="geometry" />
        </mxCell>
        <mxCell id="gw5JC3p7zC4v-04eLlQQ-24" style="rounded=0;orthogonalLoop=1;jettySize=auto;html=1;exitX=0.5;exitY=0;exitDx=0;exitDy=0;entryX=0.5;entryY=1;entryDx=0;entryDy=0;endArrow=none;startFill=0;" edge="1" parent="1" source="gw5JC3p7zC4v-04eLlQQ-13" target="gw5JC3p7zC4v-04eLlQQ-1">
          <mxGeometry relative="1" as="geometry" />
        </mxCell>
        <mxCell id="gw5JC3p7zC4v-04eLlQQ-13" value="currency" style="ellipse;whiteSpace=wrap;html=1;" vertex="1" parent="1">
          <mxGeometry x="430" y="200" width="100" height="40" as="geometry" />
        </mxCell>
        <mxCell id="gw5JC3p7zC4v-04eLlQQ-19" style="rounded=0;orthogonalLoop=1;jettySize=auto;html=1;exitX=0.5;exitY=1;exitDx=0;exitDy=0;entryX=0.5;entryY=0;entryDx=0;entryDy=0;endArrow=none;startFill=0;" edge="1" parent="1" source="gw5JC3p7zC4v-04eLlQQ-14" target="gw5JC3p7zC4v-04eLlQQ-1">
          <mxGeometry relative="1" as="geometry" />
        </mxCell>
        <mxCell id="gw5JC3p7zC4v-04eLlQQ-14" value="id" style="ellipse;whiteSpace=wrap;html=1;" vertex="1" parent="1">
          <mxGeometry x="190" y="40" width="100" height="40" as="geometry" />
        </mxCell>
        <mxCell id="gw5JC3p7zC4v-04eLlQQ-21" style="rounded=0;orthogonalLoop=1;jettySize=auto;html=1;exitX=0.5;exitY=0;exitDx=0;exitDy=0;entryX=0.5;entryY=1;entryDx=0;entryDy=0;endArrow=none;startFill=0;" edge="1" parent="1" source="gw5JC3p7zC4v-04eLlQQ-16" target="gw5JC3p7zC4v-04eLlQQ-1">
          <mxGeometry relative="1" as="geometry" />
        </mxCell>
        <mxCell id="gw5JC3p7zC4v-04eLlQQ-16" value="edited" style="ellipse;whiteSpace=wrap;html=1;" vertex="1" parent="1">
          <mxGeometry x="70" y="200" width="100" height="40" as="geometry" />
        </mxCell>
        <mxCell id="gw5JC3p7zC4v-04eLlQQ-35" style="rounded=0;orthogonalLoop=1;jettySize=auto;html=1;exitX=0;exitY=0.5;exitDx=0;exitDy=0;entryX=1;entryY=0.5;entryDx=0;entryDy=0;endArrow=none;startFill=0;" edge="1" parent="1" source="gw5JC3p7zC4v-04eLlQQ-25" target="gw5JC3p7zC4v-04eLlQQ-34">
          <mxGeometry relative="1" as="geometry" />
        </mxCell>
        <mxCell id="gw5JC3p7zC4v-04eLlQQ-38" value="n" style="edgeLabel;html=1;align=center;verticalAlign=middle;resizable=0;points=[];" vertex="1" connectable="0" parent="gw5JC3p7zC4v-04eLlQQ-35">
          <mxGeometry x="-0.081" relative="1" as="geometry">
            <mxPoint x="-23" as="offset" />
          </mxGeometry>
        </mxCell>
        <mxCell id="gw5JC3p7zC4v-04eLlQQ-25" value="Type" style="rounded=0;whiteSpace=wrap;html=1;" vertex="1" parent="1">
          <mxGeometry x="660" y="120" width="120" height="40" as="geometry" />
        </mxCell>
        <mxCell id="gw5JC3p7zC4v-04eLlQQ-30" style="rounded=0;orthogonalLoop=1;jettySize=auto;html=1;exitX=0.5;exitY=1;exitDx=0;exitDy=0;entryX=0.5;entryY=0;entryDx=0;entryDy=0;endArrow=none;startFill=0;" edge="1" parent="1" source="gw5JC3p7zC4v-04eLlQQ-26" target="gw5JC3p7zC4v-04eLlQQ-25">
          <mxGeometry relative="1" as="geometry" />
        </mxCell>
        <mxCell id="gw5JC3p7zC4v-04eLlQQ-26" value="id" style="ellipse;whiteSpace=wrap;html=1;" vertex="1" parent="1">
          <mxGeometry x="610" y="40" width="100" height="40" as="geometry" />
        </mxCell>
        <mxCell id="gw5JC3p7zC4v-04eLlQQ-33" style="rounded=0;orthogonalLoop=1;jettySize=auto;html=1;exitX=0.5;exitY=0;exitDx=0;exitDy=0;entryX=0.5;entryY=1;entryDx=0;entryDy=0;endArrow=none;startFill=0;" edge="1" parent="1" source="gw5JC3p7zC4v-04eLlQQ-27" target="gw5JC3p7zC4v-04eLlQQ-25">
          <mxGeometry relative="1" as="geometry" />
        </mxCell>
        <mxCell id="gw5JC3p7zC4v-04eLlQQ-27" value="created" style="ellipse;whiteSpace=wrap;html=1;" vertex="1" parent="1">
          <mxGeometry x="730" y="200" width="100" height="40" as="geometry" />
        </mxCell>
        <mxCell id="gw5JC3p7zC4v-04eLlQQ-32" style="rounded=0;orthogonalLoop=1;jettySize=auto;html=1;exitX=0.5;exitY=0;exitDx=0;exitDy=0;entryX=0.5;entryY=1;entryDx=0;entryDy=0;endArrow=none;startFill=0;" edge="1" parent="1" source="gw5JC3p7zC4v-04eLlQQ-28" target="gw5JC3p7zC4v-04eLlQQ-25">
          <mxGeometry relative="1" as="geometry" />
        </mxCell>
        <mxCell id="gw5JC3p7zC4v-04eLlQQ-28" value="edited" style="ellipse;whiteSpace=wrap;html=1;" vertex="1" parent="1">
          <mxGeometry x="610" y="200" width="100" height="40" as="geometry" />
        </mxCell>
        <mxCell id="gw5JC3p7zC4v-04eLlQQ-31" style="rounded=0;orthogonalLoop=1;jettySize=auto;html=1;exitX=0.5;exitY=1;exitDx=0;exitDy=0;endArrow=none;startFill=0;" edge="1" parent="1" source="gw5JC3p7zC4v-04eLlQQ-29">
          <mxGeometry relative="1" as="geometry">
            <mxPoint x="720" y="120" as="targetPoint" />
          </mxGeometry>
        </mxCell>
        <mxCell id="gw5JC3p7zC4v-04eLlQQ-29" value="name" style="ellipse;whiteSpace=wrap;html=1;" vertex="1" parent="1">
          <mxGeometry x="730" y="40" width="100" height="40" as="geometry" />
        </mxCell>
        <mxCell id="gw5JC3p7zC4v-04eLlQQ-34" value="of" style="rhombus;whiteSpace=wrap;html=1;" vertex="1" parent="1">
          <mxGeometry x="540" y="120" width="60" height="40" as="geometry" />
        </mxCell>
      </root>
    </mxGraphModel>
  </diagram>
</mxfile>
